<mxfile host="Electron" modified="2023-08-29T15:07:22.300Z" agent="Mozilla/5.0 (X11; Linux x86_64) AppleWebKit/537.36 (KHTML, like Gecko) draw.io/21.6.8 Chrome/114.0.5735.289 Electron/25.5.0 Safari/537.36" etag="GAQbQu5B9HHrDzOOIguT" version="21.6.8" type="device">
  <diagram name="Page-1" id="64c3da0e-402f-94eb-ee01-a36477274f13">
    <mxGraphModel dx="1222" dy="1369" grid="1" gridSize="10" guides="1" tooltips="1" connect="1" arrows="1" fold="1" page="1" pageScale="1" pageWidth="1169" pageHeight="826" background="none" math="0" shadow="0">
      <root>
        <mxCell id="0" />
        <mxCell id="1" parent="0" />
        <mxCell id="OGec-YMjxBYPh5rcnH5--235" value="UI" style="whiteSpace=wrap;rounded=1;fillColor=#12AAB5;strokeColor=none;shadow=1;fontColor=#FFFFFF;" parent="1" vertex="1">
          <mxGeometry x="2280" y="300.0000000000002" width="120" height="60" as="geometry" />
        </mxCell>
        <mxCell id="OGec-YMjxBYPh5rcnH5--239" value="Plan on figma&#xa;切版" style="whiteSpace=wrap;rounded=1;fillColor=#999999;strokeColor=none;shadow=1;fontColor=#FFFFFF;fontStyle=0" parent="1" vertex="1">
          <mxGeometry x="2279.999999999999" y="400.0000000000002" width="120" height="60" as="geometry" />
        </mxCell>
        <mxCell id="OGec-YMjxBYPh5rcnH5--240" value="實作" style="whiteSpace=wrap;rounded=1;fillColor=#999999;strokeColor=none;shadow=1;fontColor=#FFFFFF;fontStyle=0" parent="1" vertex="1">
          <mxGeometry x="2279.9999999999995" y="480.0000000000002" width="120" height="60" as="geometry" />
        </mxCell>
        <mxCell id="OGec-YMjxBYPh5rcnH5--244" value="" style="edgeStyle=elbowEdgeStyle;elbow=horizontal;rounded=0;fontColor=#000000;endArrow=none;endFill=0;strokeWidth=8;strokeColor=#23445D;" parent="1" source="OGec-YMjxBYPh5rcnH5--235" target="OGec-YMjxBYPh5rcnH5--239" edge="1">
          <mxGeometry width="100" height="100" relative="1" as="geometry">
            <mxPoint x="2250" y="330.00000000000057" as="sourcePoint" />
            <mxPoint x="2259.9999999999995" y="430.0000000000001" as="targetPoint" />
            <Array as="points">
              <mxPoint x="2260" y="380.0000000000001" />
            </Array>
          </mxGeometry>
        </mxCell>
        <mxCell id="OGec-YMjxBYPh5rcnH5--245" value="" style="edgeStyle=elbowEdgeStyle;elbow=horizontal;rounded=0;fontColor=#000000;endArrow=none;endFill=0;strokeWidth=8;strokeColor=#23445D;" parent="1" source="OGec-YMjxBYPh5rcnH5--235" target="OGec-YMjxBYPh5rcnH5--240" edge="1">
          <mxGeometry width="100" height="100" relative="1" as="geometry">
            <mxPoint x="2260" y="330.0000000000001" as="sourcePoint" />
            <mxPoint x="2260" y="510.0000000000001" as="targetPoint" />
            <Array as="points">
              <mxPoint x="2260" y="420.0000000000001" />
            </Array>
          </mxGeometry>
        </mxCell>
        <mxCell id="OGec-YMjxBYPh5rcnH5--376" value="主頁面" style="whiteSpace=wrap;rounded=1;fillColor=#999999;strokeColor=none;shadow=1;fontColor=#FFFFFF;fontStyle=0" parent="1" vertex="1">
          <mxGeometry x="2459.9999999999995" y="480.0000000000002" width="120" height="60" as="geometry" />
        </mxCell>
        <mxCell id="OGec-YMjxBYPh5rcnH5--377" value=" 設計選單功能" style="whiteSpace=wrap;rounded=1;fillColor=#999999;strokeColor=none;shadow=1;fontColor=#FFFFFF;fontStyle=0" parent="1" vertex="1">
          <mxGeometry x="2639.9999999999995" y="400.0000000000002" width="120" height="60" as="geometry" />
        </mxCell>
        <mxCell id="OGec-YMjxBYPh5rcnH5--378" value="設計Dashboard" style="whiteSpace=wrap;rounded=1;fillColor=#999999;strokeColor=none;shadow=1;fontColor=#FFFFFF;fontStyle=0" parent="1" vertex="1">
          <mxGeometry x="2639.9999999999995" y="480.0000000000002" width="120" height="60" as="geometry" />
        </mxCell>
        <mxCell id="OGec-YMjxBYPh5rcnH5--379" value="" style="edgeStyle=elbowEdgeStyle;elbow=horizontal;rounded=0;fontColor=#000000;endArrow=none;endFill=0;strokeWidth=8;strokeColor=#23445D;entryX=0;entryY=0.5;entryDx=0;entryDy=0;" parent="1" source="OGec-YMjxBYPh5rcnH5--240" target="OGec-YMjxBYPh5rcnH5--376" edge="1">
          <mxGeometry width="100" height="100" relative="1" as="geometry">
            <mxPoint x="2400" y="509.44" as="sourcePoint" />
            <mxPoint x="2470" y="509.44" as="targetPoint" />
            <Array as="points" />
          </mxGeometry>
        </mxCell>
        <mxCell id="OGec-YMjxBYPh5rcnH5--380" value="" style="edgeStyle=elbowEdgeStyle;elbow=horizontal;rounded=0;fontColor=#000000;endArrow=none;endFill=0;strokeWidth=8;strokeColor=#23445D;exitX=1;exitY=0.5;exitDx=0;exitDy=0;" parent="1" source="OGec-YMjxBYPh5rcnH5--376" target="OGec-YMjxBYPh5rcnH5--378" edge="1">
          <mxGeometry width="100" height="100" relative="1" as="geometry">
            <mxPoint x="2630" y="600" as="sourcePoint" />
            <mxPoint x="2730" y="600" as="targetPoint" />
            <Array as="points" />
          </mxGeometry>
        </mxCell>
        <mxCell id="OGec-YMjxBYPh5rcnH5--381" value="" style="edgeStyle=elbowEdgeStyle;elbow=horizontal;rounded=0;fontColor=#000000;endArrow=none;endFill=0;strokeWidth=8;strokeColor=#23445D;" parent="1" source="OGec-YMjxBYPh5rcnH5--376" target="OGec-YMjxBYPh5rcnH5--377" edge="1">
          <mxGeometry width="100" height="100" relative="1" as="geometry">
            <mxPoint x="2630" y="600" as="sourcePoint" />
            <mxPoint x="2730" y="680" as="targetPoint" />
            <Array as="points" />
          </mxGeometry>
        </mxCell>
        <mxCell id="OGec-YMjxBYPh5rcnH5--382" value="設計給線段空軸準備區更新" style="whiteSpace=wrap;rounded=1;fillColor=#999999;strokeColor=none;shadow=1;fontColor=#FFFFFF;fontStyle=0" parent="1" vertex="1">
          <mxGeometry x="2819.9999999999995" y="640.0000000000002" width="120" height="60" as="geometry" />
        </mxCell>
        <mxCell id="OGec-YMjxBYPh5rcnH5--383" value="排版頁面" style="whiteSpace=wrap;rounded=1;fillColor=#999999;strokeColor=none;shadow=1;fontColor=#FFFFFF;fontStyle=0" parent="1" vertex="1">
          <mxGeometry x="2819.9999999999995" y="480.0000000000002" width="120" height="60" as="geometry" />
        </mxCell>
        <mxCell id="OGec-YMjxBYPh5rcnH5--384" value="設計捲取段滿軸準備區更新" style="whiteSpace=wrap;rounded=1;fillColor=#999999;strokeColor=none;shadow=1;fontColor=#FFFFFF;fontStyle=0" parent="1" vertex="1">
          <mxGeometry x="2819.9999999999995" y="720.0000000000002" width="120" height="60" as="geometry" />
        </mxCell>
        <mxCell id="OGec-YMjxBYPh5rcnH5--385" value="" style="edgeStyle=elbowEdgeStyle;elbow=horizontal;rounded=0;fontColor=#000000;endArrow=none;endFill=0;strokeWidth=8;strokeColor=#23445D;" parent="1" source="OGec-YMjxBYPh5rcnH5--378" target="OGec-YMjxBYPh5rcnH5--384" edge="1">
          <mxGeometry width="100" height="100" relative="1" as="geometry">
            <mxPoint x="2760" y="589.6" as="sourcePoint" />
            <mxPoint x="2820" y="589.6" as="targetPoint" />
            <Array as="points" />
          </mxGeometry>
        </mxCell>
        <mxCell id="OGec-YMjxBYPh5rcnH5--386" value="" style="edgeStyle=elbowEdgeStyle;elbow=horizontal;rounded=0;fontColor=#000000;endArrow=none;endFill=0;strokeWidth=8;strokeColor=#23445D;exitX=1;exitY=0.5;exitDx=0;exitDy=0;" parent="1" source="OGec-YMjxBYPh5rcnH5--378" target="OGec-YMjxBYPh5rcnH5--382" edge="1">
          <mxGeometry width="100" height="100" relative="1" as="geometry">
            <mxPoint x="2760" y="590" as="sourcePoint" />
            <mxPoint x="2820" y="619.2" as="targetPoint" />
            <Array as="points" />
          </mxGeometry>
        </mxCell>
        <mxCell id="OGec-YMjxBYPh5rcnH5--387" value="" style="edgeStyle=elbowEdgeStyle;elbow=horizontal;rounded=0;fontColor=#000000;endArrow=none;endFill=0;strokeWidth=8;strokeColor=#23445D;exitX=1;exitY=0.5;exitDx=0;exitDy=0;" parent="1" source="OGec-YMjxBYPh5rcnH5--378" target="OGec-YMjxBYPh5rcnH5--383" edge="1">
          <mxGeometry width="100" height="100" relative="1" as="geometry">
            <mxPoint x="2770" y="600" as="sourcePoint" />
            <mxPoint x="2830" y="600" as="targetPoint" />
            <Array as="points" />
          </mxGeometry>
        </mxCell>
        <mxCell id="OGec-YMjxBYPh5rcnH5--388" value="Read database for machine initial setting&#xa;(from database -&gt; read api)" style="whiteSpace=wrap;rounded=1;fillColor=#999999;strokeColor=none;shadow=1;fontColor=#FFFFFF;fontStyle=0" parent="1" vertex="1">
          <mxGeometry x="2819.9999999999995" y="400.0000000000002" width="120" height="60" as="geometry" />
        </mxCell>
        <mxCell id="OGec-YMjxBYPh5rcnH5--389" value="" style="edgeStyle=elbowEdgeStyle;elbow=horizontal;rounded=0;fontColor=#000000;endArrow=none;endFill=0;strokeWidth=8;strokeColor=#23445D;exitX=1;exitY=0.5;exitDx=0;exitDy=0;" parent="1" source="OGec-YMjxBYPh5rcnH5--378" target="OGec-YMjxBYPh5rcnH5--388" edge="1">
          <mxGeometry width="100" height="100" relative="1" as="geometry">
            <mxPoint x="2770" y="600" as="sourcePoint" />
            <mxPoint x="2830" y="440" as="targetPoint" />
            <Array as="points" />
          </mxGeometry>
        </mxCell>
        <mxCell id="OGec-YMjxBYPh5rcnH5--390" value="選單：機台設定" style="whiteSpace=wrap;rounded=1;fillColor=#999999;strokeColor=none;shadow=1;fontColor=#FFFFFF;fontStyle=0" parent="1" vertex="1">
          <mxGeometry x="2459.9999999999995" y="560.0000000000002" width="120" height="60" as="geometry" />
        </mxCell>
        <mxCell id="OGec-YMjxBYPh5rcnH5--391" value="" style="edgeStyle=elbowEdgeStyle;elbow=horizontal;rounded=0;fontColor=#000000;endArrow=none;endFill=0;strokeWidth=8;strokeColor=#23445D;" parent="1" source="OGec-YMjxBYPh5rcnH5--240" target="OGec-YMjxBYPh5rcnH5--390" edge="1">
          <mxGeometry width="100" height="100" relative="1" as="geometry">
            <mxPoint x="2590" y="520" as="sourcePoint" />
            <mxPoint x="2650" y="360" as="targetPoint" />
            <Array as="points" />
          </mxGeometry>
        </mxCell>
        <mxCell id="OGec-YMjxBYPh5rcnH5--392" value="選單：系統設定" style="whiteSpace=wrap;rounded=1;fillColor=#999999;strokeColor=none;shadow=1;fontColor=#FFFFFF;fontStyle=0" parent="1" vertex="1">
          <mxGeometry x="2459.9999999999995" y="720.0000000000002" width="120" height="60" as="geometry" />
        </mxCell>
        <mxCell id="OGec-YMjxBYPh5rcnH5--393" value="顯示機台狀態" style="whiteSpace=wrap;rounded=1;fillColor=#999999;strokeColor=none;shadow=1;fontColor=#FFFFFF;fontStyle=0" parent="1" vertex="1">
          <mxGeometry x="2639.9999999999995" y="560.0000000000002" width="120" height="60" as="geometry" />
        </mxCell>
        <mxCell id="OGec-YMjxBYPh5rcnH5--394" value="" style="edgeStyle=elbowEdgeStyle;elbow=horizontal;rounded=0;fontColor=#000000;endArrow=none;endFill=0;strokeWidth=8;strokeColor=#23445D;" parent="1" source="OGec-YMjxBYPh5rcnH5--390" target="OGec-YMjxBYPh5rcnH5--393" edge="1">
          <mxGeometry width="100" height="100" relative="1" as="geometry">
            <mxPoint x="2580" y="589.6" as="sourcePoint" />
            <mxPoint x="2640" y="589.6" as="targetPoint" />
            <Array as="points" />
          </mxGeometry>
        </mxCell>
        <mxCell id="OGec-YMjxBYPh5rcnH5--395" value="排版給線軸狀態" style="whiteSpace=wrap;rounded=1;fillColor=#999999;strokeColor=none;shadow=1;fontColor=#FFFFFF;fontStyle=0" parent="1" vertex="1">
          <mxGeometry x="2819.9999999999995" y="800.0000000000002" width="120" height="60" as="geometry" />
        </mxCell>
        <mxCell id="OGec-YMjxBYPh5rcnH5--396" value="" style="edgeStyle=elbowEdgeStyle;elbow=horizontal;rounded=0;fontColor=#000000;endArrow=none;endFill=0;strokeWidth=8;strokeColor=#23445D;exitX=1;exitY=0.5;exitDx=0;exitDy=0;" parent="1" source="OGec-YMjxBYPh5rcnH5--378" target="OGec-YMjxBYPh5rcnH5--395" edge="1">
          <mxGeometry width="100" height="100" relative="1" as="geometry">
            <mxPoint x="2770" y="600" as="sourcePoint" />
            <mxPoint x="2830" y="600" as="targetPoint" />
            <Array as="points" />
          </mxGeometry>
        </mxCell>
        <mxCell id="OGec-YMjxBYPh5rcnH5--397" value="選擇目標機台&#xa;(to data manager -&gt; update api, core -&gt; analyzer update api)" style="whiteSpace=wrap;rounded=1;fillColor=#999999;strokeColor=none;shadow=1;fontColor=#FFFFFF;fontStyle=0" parent="1" vertex="1">
          <mxGeometry x="2639.9999999999995" y="720.0000000000002" width="120" height="60" as="geometry" />
        </mxCell>
        <mxCell id="OGec-YMjxBYPh5rcnH5--398" value="" style="edgeStyle=elbowEdgeStyle;elbow=horizontal;rounded=0;fontColor=#000000;endArrow=none;endFill=0;strokeWidth=8;strokeColor=#23445D;" parent="1" source="OGec-YMjxBYPh5rcnH5--240" target="OGec-YMjxBYPh5rcnH5--392" edge="1">
          <mxGeometry width="100" height="100" relative="1" as="geometry">
            <mxPoint x="2410" y="520" as="sourcePoint" />
            <mxPoint x="2470" y="680" as="targetPoint" />
            <Array as="points" />
          </mxGeometry>
        </mxCell>
        <mxCell id="OGec-YMjxBYPh5rcnH5--399" value="" style="edgeStyle=elbowEdgeStyle;elbow=horizontal;rounded=0;fontColor=#000000;endArrow=none;endFill=0;strokeWidth=8;strokeColor=#23445D;" parent="1" source="OGec-YMjxBYPh5rcnH5--392" target="OGec-YMjxBYPh5rcnH5--397" edge="1">
          <mxGeometry width="100" height="100" relative="1" as="geometry">
            <mxPoint x="2580" y="749.47" as="sourcePoint" />
            <mxPoint x="2640" y="749.47" as="targetPoint" />
            <Array as="points" />
          </mxGeometry>
        </mxCell>
        <mxCell id="OGec-YMjxBYPh5rcnH5--400" value="設計備份設定/資料頁面" style="whiteSpace=wrap;rounded=1;fillColor=#999999;strokeColor=none;shadow=1;fontColor=#FFFFFF;fontStyle=0" parent="1" vertex="1">
          <mxGeometry x="2639.9999999999995" y="1040.0000000000002" width="120" height="60" as="geometry" />
        </mxCell>
        <mxCell id="OGec-YMjxBYPh5rcnH5--401" value="" style="edgeStyle=elbowEdgeStyle;elbow=horizontal;rounded=0;fontColor=#000000;endArrow=none;endFill=0;strokeWidth=8;strokeColor=#23445D;" parent="1" source="OGec-YMjxBYPh5rcnH5--392" target="OGec-YMjxBYPh5rcnH5--400" edge="1">
          <mxGeometry width="100" height="100" relative="1" as="geometry">
            <mxPoint x="2590" y="760" as="sourcePoint" />
            <mxPoint x="2650" y="760" as="targetPoint" />
            <Array as="points" />
          </mxGeometry>
        </mxCell>
        <mxCell id="OGec-YMjxBYPh5rcnH5--402" value="設計生產狀態更新" style="whiteSpace=wrap;rounded=1;fillColor=#999999;strokeColor=none;shadow=1;fontColor=#FFFFFF;fontStyle=0" parent="1" vertex="1">
          <mxGeometry x="2822.9999999999995" y="560.0000000000002" width="120" height="60" as="geometry" />
        </mxCell>
        <mxCell id="OGec-YMjxBYPh5rcnH5--403" value="" style="edgeStyle=elbowEdgeStyle;elbow=horizontal;rounded=0;fontColor=#000000;endArrow=none;endFill=0;strokeWidth=8;strokeColor=#23445D;" parent="1" source="OGec-YMjxBYPh5rcnH5--378" target="OGec-YMjxBYPh5rcnH5--402" edge="1">
          <mxGeometry width="100" height="100" relative="1" as="geometry">
            <mxPoint x="2770" y="520" as="sourcePoint" />
            <mxPoint x="2830" y="440" as="targetPoint" />
            <Array as="points" />
          </mxGeometry>
        </mxCell>
        <mxCell id="OGec-YMjxBYPh5rcnH5--404" value="設計給線軸準備區更新" style="whiteSpace=wrap;rounded=1;fillColor=#999999;strokeColor=none;shadow=1;fontColor=#FFFFFF;fontStyle=0" parent="1" vertex="1">
          <mxGeometry x="2822.9999999999995" y="880.0000000000002" width="120" height="60" as="geometry" />
        </mxCell>
        <mxCell id="OGec-YMjxBYPh5rcnH5--405" value="" style="edgeStyle=elbowEdgeStyle;elbow=horizontal;rounded=0;fontColor=#000000;endArrow=none;endFill=0;strokeWidth=8;strokeColor=#23445D;" parent="1" source="OGec-YMjxBYPh5rcnH5--378" target="OGec-YMjxBYPh5rcnH5--404" edge="1">
          <mxGeometry width="100" height="100" relative="1" as="geometry">
            <mxPoint x="2770" y="520" as="sourcePoint" />
            <mxPoint x="2830" y="760" as="targetPoint" />
            <Array as="points">
              <mxPoint x="2790" y="670" />
            </Array>
          </mxGeometry>
        </mxCell>
        <mxCell id="OGec-YMjxBYPh5rcnH5--407" value="設計update api" style="whiteSpace=wrap;rounded=1;fillColor=#999999;strokeColor=none;shadow=1;fontColor=#FFFFFF;fontStyle=0" parent="1" vertex="1">
          <mxGeometry x="2822.9999999999995" y="960.0000000000002" width="120" height="60" as="geometry" />
        </mxCell>
        <mxCell id="OGec-YMjxBYPh5rcnH5--408" value="" style="edgeStyle=elbowEdgeStyle;elbow=horizontal;rounded=0;fontColor=#000000;endArrow=none;endFill=0;strokeWidth=8;strokeColor=#23445D;" parent="1" source="OGec-YMjxBYPh5rcnH5--378" target="OGec-YMjxBYPh5rcnH5--407" edge="1">
          <mxGeometry width="100" height="100" relative="1" as="geometry">
            <mxPoint x="2770" y="520" as="sourcePoint" />
            <mxPoint x="2833" y="920" as="targetPoint" />
            <Array as="points">
              <mxPoint x="2790" y="750" />
            </Array>
          </mxGeometry>
        </mxCell>
        <mxCell id="OGec-YMjxBYPh5rcnH5--409" value="產生machine status update api" style="whiteSpace=wrap;rounded=1;fillColor=#999999;strokeColor=none;shadow=1;fontColor=#FFFFFF;fontStyle=0" parent="1" vertex="1">
          <mxGeometry x="2639.9999999999995" y="640.0000000000002" width="120" height="60" as="geometry" />
        </mxCell>
        <mxCell id="OGec-YMjxBYPh5rcnH5--410" value="" style="edgeStyle=elbowEdgeStyle;elbow=horizontal;rounded=0;fontColor=#000000;endArrow=none;endFill=0;strokeWidth=8;strokeColor=#23445D;" parent="1" source="OGec-YMjxBYPh5rcnH5--390" target="OGec-YMjxBYPh5rcnH5--409" edge="1">
          <mxGeometry width="100" height="100" relative="1" as="geometry">
            <mxPoint x="2590" y="600" as="sourcePoint" />
            <mxPoint x="2650" y="600" as="targetPoint" />
            <Array as="points" />
          </mxGeometry>
        </mxCell>
        <mxCell id="OGec-YMjxBYPh5rcnH5--418" value="排版頁面" style="whiteSpace=wrap;rounded=1;fillColor=#999999;strokeColor=none;shadow=1;fontColor=#FFFFFF;fontStyle=0" parent="1" vertex="1">
          <mxGeometry x="2822.9999999999995" y="1040.0000000000002" width="120" height="60" as="geometry" />
        </mxCell>
        <mxCell id="OGec-YMjxBYPh5rcnH5--419" value="設計匯出系統設定" style="whiteSpace=wrap;rounded=1;fillColor=#999999;strokeColor=none;shadow=1;fontColor=#FFFFFF;fontStyle=0" parent="1" vertex="1">
          <mxGeometry x="2819.9999999999995" y="1120.0000000000002" width="120" height="60" as="geometry" />
        </mxCell>
        <mxCell id="OGec-YMjxBYPh5rcnH5--420" value="設計匯入系統設定" style="whiteSpace=wrap;rounded=1;fillColor=#999999;strokeColor=none;shadow=1;fontColor=#FFFFFF;fontStyle=0" parent="1" vertex="1">
          <mxGeometry x="2822.9999999999995" y="1200.0000000000002" width="120" height="60" as="geometry" />
        </mxCell>
        <mxCell id="OGec-YMjxBYPh5rcnH5--421" value="設計定期備份" style="whiteSpace=wrap;rounded=1;fillColor=#999999;strokeColor=none;shadow=1;fontColor=#FFFFFF;fontStyle=0" parent="1" vertex="1">
          <mxGeometry x="2822.9999999999995" y="1280.0000000000002" width="120" height="60" as="geometry" />
        </mxCell>
        <mxCell id="OGec-YMjxBYPh5rcnH5--422" value="" style="edgeStyle=elbowEdgeStyle;elbow=horizontal;rounded=0;fontColor=#000000;endArrow=none;endFill=0;strokeWidth=8;strokeColor=#23445D;" parent="1" source="OGec-YMjxBYPh5rcnH5--400" target="OGec-YMjxBYPh5rcnH5--418" edge="1">
          <mxGeometry width="100" height="100" relative="1" as="geometry">
            <mxPoint x="2770" y="520" as="sourcePoint" />
            <mxPoint x="2833" y="1000" as="targetPoint" />
            <Array as="points">
              <mxPoint x="2790" y="1070" />
            </Array>
          </mxGeometry>
        </mxCell>
        <mxCell id="OGec-YMjxBYPh5rcnH5--423" value="" style="edgeStyle=elbowEdgeStyle;elbow=horizontal;rounded=0;fontColor=#000000;endArrow=none;endFill=0;strokeWidth=8;strokeColor=#23445D;" parent="1" target="OGec-YMjxBYPh5rcnH5--419" edge="1">
          <mxGeometry width="100" height="100" relative="1" as="geometry">
            <mxPoint x="2760" y="1070" as="sourcePoint" />
            <mxPoint x="2833" y="1080" as="targetPoint" />
            <Array as="points">
              <mxPoint x="2800" y="1080" />
            </Array>
          </mxGeometry>
        </mxCell>
        <mxCell id="OGec-YMjxBYPh5rcnH5--424" value="" style="edgeStyle=elbowEdgeStyle;elbow=horizontal;rounded=0;fontColor=#000000;endArrow=none;endFill=0;strokeWidth=8;strokeColor=#23445D;exitX=1;exitY=0.5;exitDx=0;exitDy=0;" parent="1" source="OGec-YMjxBYPh5rcnH5--400" target="OGec-YMjxBYPh5rcnH5--420" edge="1">
          <mxGeometry width="100" height="100" relative="1" as="geometry">
            <mxPoint x="2770" y="1080" as="sourcePoint" />
            <mxPoint x="2830" y="1160" as="targetPoint" />
            <Array as="points">
              <mxPoint x="2800" y="1160" />
            </Array>
          </mxGeometry>
        </mxCell>
        <mxCell id="OGec-YMjxBYPh5rcnH5--425" value="" style="edgeStyle=elbowEdgeStyle;elbow=horizontal;rounded=0;fontColor=#000000;endArrow=none;endFill=0;strokeWidth=8;strokeColor=#23445D;exitX=1;exitY=0.5;exitDx=0;exitDy=0;" parent="1" source="OGec-YMjxBYPh5rcnH5--400" target="OGec-YMjxBYPh5rcnH5--421" edge="1">
          <mxGeometry width="100" height="100" relative="1" as="geometry">
            <mxPoint x="2770" y="1080" as="sourcePoint" />
            <mxPoint x="2833" y="1240" as="targetPoint" />
            <Array as="points">
              <mxPoint x="2800" y="1200" />
            </Array>
          </mxGeometry>
        </mxCell>
        <mxCell id="OGec-YMjxBYPh5rcnH5--426" value="選單：同步設定" style="whiteSpace=wrap;rounded=1;fillColor=#999999;strokeColor=none;shadow=1;fontColor=#FFFFFF;fontStyle=0" parent="1" vertex="1">
          <mxGeometry x="2459.9999999999995" y="1360.0000000000002" width="120" height="60" as="geometry" />
        </mxCell>
        <mxCell id="OGec-YMjxBYPh5rcnH5--427" value="" style="edgeStyle=elbowEdgeStyle;elbow=horizontal;rounded=0;fontColor=#000000;endArrow=none;endFill=0;strokeWidth=8;strokeColor=#23445D;" parent="1" source="OGec-YMjxBYPh5rcnH5--240" target="OGec-YMjxBYPh5rcnH5--426" edge="1">
          <mxGeometry width="100" height="100" relative="1" as="geometry">
            <mxPoint x="2410" y="520" as="sourcePoint" />
            <mxPoint x="2470" y="760" as="targetPoint" />
            <Array as="points" />
          </mxGeometry>
        </mxCell>
        <mxCell id="OGec-YMjxBYPh5rcnH5--428" value="設計同步來源" style="whiteSpace=wrap;rounded=1;fillColor=#999999;strokeColor=none;shadow=1;fontColor=#FFFFFF;fontStyle=0" parent="1" vertex="1">
          <mxGeometry x="2639.9999999999995" y="1360.0000000000002" width="120" height="60" as="geometry" />
        </mxCell>
        <mxCell id="OGec-YMjxBYPh5rcnH5--429" value="" style="edgeStyle=elbowEdgeStyle;elbow=horizontal;rounded=0;fontColor=#000000;endArrow=none;endFill=0;strokeWidth=8;strokeColor=#23445D;" parent="1" source="OGec-YMjxBYPh5rcnH5--426" target="OGec-YMjxBYPh5rcnH5--428" edge="1">
          <mxGeometry width="100" height="100" relative="1" as="geometry">
            <mxPoint x="2580" y="1389.23" as="sourcePoint" />
            <mxPoint x="2640" y="1389.23" as="targetPoint" />
            <Array as="points" />
          </mxGeometry>
        </mxCell>
        <mxCell id="OGec-YMjxBYPh5rcnH5--430" value="設計手動同步功能" style="whiteSpace=wrap;rounded=1;fillColor=#999999;strokeColor=none;shadow=1;fontColor=#FFFFFF;fontStyle=0" parent="1" vertex="1">
          <mxGeometry x="2639.9999999999995" y="1440.0000000000002" width="120" height="60" as="geometry" />
        </mxCell>
        <mxCell id="OGec-YMjxBYPh5rcnH5--431" value="" style="edgeStyle=elbowEdgeStyle;elbow=horizontal;rounded=0;fontColor=#000000;endArrow=none;endFill=0;strokeWidth=8;strokeColor=#23445D;" parent="1" source="OGec-YMjxBYPh5rcnH5--426" target="OGec-YMjxBYPh5rcnH5--430" edge="1">
          <mxGeometry width="100" height="100" relative="1" as="geometry">
            <mxPoint x="2590" y="1400" as="sourcePoint" />
            <mxPoint x="2650" y="1400" as="targetPoint" />
            <Array as="points" />
          </mxGeometry>
        </mxCell>
        <mxCell id="OGec-YMjxBYPh5rcnH5--432" value="選單：報表" style="whiteSpace=wrap;rounded=1;fillColor=#999999;strokeColor=none;shadow=1;fontColor=#FFFFFF;fontStyle=0" parent="1" vertex="1">
          <mxGeometry x="2459.9999999999995" y="1520.0000000000002" width="120" height="60" as="geometry" />
        </mxCell>
        <mxCell id="OGec-YMjxBYPh5rcnH5--433" value="排版報表產生功能" style="whiteSpace=wrap;rounded=1;fillColor=#999999;strokeColor=none;shadow=1;fontColor=#FFFFFF;fontStyle=0" parent="1" vertex="1">
          <mxGeometry x="2639.9999999999995" y="1520.0000000000002" width="120" height="60" as="geometry" />
        </mxCell>
        <mxCell id="OGec-YMjxBYPh5rcnH5--434" value="" style="edgeStyle=elbowEdgeStyle;elbow=horizontal;rounded=0;fontColor=#000000;endArrow=none;endFill=0;strokeWidth=8;strokeColor=#23445D;" parent="1" source="OGec-YMjxBYPh5rcnH5--432" target="OGec-YMjxBYPh5rcnH5--433" edge="1">
          <mxGeometry width="100" height="100" relative="1" as="geometry">
            <mxPoint x="2590" y="1400" as="sourcePoint" />
            <mxPoint x="2650" y="1480" as="targetPoint" />
            <Array as="points" />
          </mxGeometry>
        </mxCell>
        <mxCell id="OGec-YMjxBYPh5rcnH5--435" value="" style="edgeStyle=elbowEdgeStyle;elbow=horizontal;rounded=0;fontColor=#000000;endArrow=none;endFill=0;strokeWidth=8;strokeColor=#23445D;" parent="1" source="OGec-YMjxBYPh5rcnH5--240" target="OGec-YMjxBYPh5rcnH5--432" edge="1">
          <mxGeometry width="100" height="100" relative="1" as="geometry">
            <mxPoint x="2410" y="520" as="sourcePoint" />
            <mxPoint x="2470" y="1400" as="targetPoint" />
            <Array as="points" />
          </mxGeometry>
        </mxCell>
        <mxCell id="OGec-YMjxBYPh5rcnH5--436" value="讀取報表資料&#xa;(from data manager&#xa; -&gt; read api)" style="whiteSpace=wrap;rounded=1;fillColor=#999999;strokeColor=none;shadow=1;fontColor=#FFFFFF;fontStyle=0" parent="1" vertex="1">
          <mxGeometry x="2639.9999999999995" y="1600.0000000000002" width="120" height="60" as="geometry" />
        </mxCell>
        <mxCell id="OGec-YMjxBYPh5rcnH5--437" value="" style="edgeStyle=elbowEdgeStyle;elbow=horizontal;rounded=0;fontColor=#000000;endArrow=none;endFill=0;strokeWidth=8;strokeColor=#23445D;" parent="1" source="OGec-YMjxBYPh5rcnH5--432" target="OGec-YMjxBYPh5rcnH5--436" edge="1">
          <mxGeometry width="100" height="100" relative="1" as="geometry">
            <mxPoint x="2590" y="1560" as="sourcePoint" />
            <mxPoint x="2650" y="1560" as="targetPoint" />
            <Array as="points" />
          </mxGeometry>
        </mxCell>
        <mxCell id="bXA-Rw4eIvZCCJUGhv4U-283" value="7" style="ellipse;whiteSpace=wrap;html=1;aspect=fixed;fontSize=16;fontStyle=1;labelBackgroundColor=none;fillColor=#fff2cc;strokeColor=#d6b656;strokeWidth=5;" parent="1" vertex="1">
          <mxGeometry x="2400" y="412.5" width="35" height="35" as="geometry" />
        </mxCell>
        <mxCell id="bXA-Rw4eIvZCCJUGhv4U-284" value="6" style="ellipse;whiteSpace=wrap;html=1;aspect=fixed;fontSize=16;fontStyle=1;labelBackgroundColor=none;fillColor=#fff2cc;strokeColor=#d6b656;strokeWidth=5;" parent="1" vertex="1">
          <mxGeometry x="2950" y="432.5" width="35" height="35" as="geometry" />
        </mxCell>
        <mxCell id="bXA-Rw4eIvZCCJUGhv4U-285" value="4" style="ellipse;whiteSpace=wrap;html=1;aspect=fixed;fontSize=16;fontStyle=1;labelBackgroundColor=none;fillColor=#fff2cc;strokeColor=#d6b656;strokeWidth=5;" parent="1" vertex="1">
          <mxGeometry x="2950" y="506" width="35" height="35" as="geometry" />
        </mxCell>
        <mxCell id="bXA-Rw4eIvZCCJUGhv4U-286" value="4" style="ellipse;whiteSpace=wrap;html=1;aspect=fixed;fontSize=16;fontStyle=1;labelBackgroundColor=none;fillColor=#fff2cc;strokeColor=#d6b656;strokeWidth=5;" parent="1" vertex="1">
          <mxGeometry x="2950" y="584" width="35" height="35" as="geometry" />
        </mxCell>
        <mxCell id="bXA-Rw4eIvZCCJUGhv4U-287" value="5" style="ellipse;whiteSpace=wrap;html=1;aspect=fixed;fontSize=16;fontStyle=1;labelBackgroundColor=none;fillColor=#fff2cc;strokeColor=#d6b656;strokeWidth=5;" parent="1" vertex="1">
          <mxGeometry x="2950" y="653.5" width="35" height="35" as="geometry" />
        </mxCell>
        <mxCell id="bXA-Rw4eIvZCCJUGhv4U-288" value="5" style="ellipse;whiteSpace=wrap;html=1;aspect=fixed;fontSize=16;fontStyle=1;labelBackgroundColor=none;fillColor=#fff2cc;strokeColor=#d6b656;strokeWidth=5;" parent="1" vertex="1">
          <mxGeometry x="2950" y="729" width="35" height="35" as="geometry" />
        </mxCell>
        <mxCell id="bXA-Rw4eIvZCCJUGhv4U-289" value="3" style="ellipse;whiteSpace=wrap;html=1;aspect=fixed;fontSize=16;fontStyle=1;labelBackgroundColor=none;fillColor=#fff2cc;strokeColor=#d6b656;strokeWidth=5;" parent="1" vertex="1">
          <mxGeometry x="2950" y="812.5" width="35" height="35" as="geometry" />
        </mxCell>
        <mxCell id="bXA-Rw4eIvZCCJUGhv4U-290" value="6" style="ellipse;whiteSpace=wrap;html=1;aspect=fixed;fontSize=16;fontStyle=1;labelBackgroundColor=none;fillColor=#fff2cc;strokeColor=#d6b656;strokeWidth=5;" parent="1" vertex="1">
          <mxGeometry x="2950" y="892.5" width="35" height="35" as="geometry" />
        </mxCell>
        <mxCell id="bXA-Rw4eIvZCCJUGhv4U-291" value="3" style="ellipse;whiteSpace=wrap;html=1;aspect=fixed;fontSize=16;fontStyle=1;labelBackgroundColor=none;fillColor=#fff2cc;strokeColor=#d6b656;strokeWidth=5;" parent="1" vertex="1">
          <mxGeometry x="2950" y="972.5" width="35" height="35" as="geometry" />
        </mxCell>
        <mxCell id="bXA-Rw4eIvZCCJUGhv4U-292" value="29" style="ellipse;whiteSpace=wrap;html=1;aspect=fixed;fontSize=16;fontStyle=1;labelBackgroundColor=none;fillColor=#fff2cc;strokeColor=#d6b656;strokeWidth=5;" parent="1" vertex="1">
          <mxGeometry x="2730" y="467" width="35" height="35" as="geometry" />
        </mxCell>
        <mxCell id="bXA-Rw4eIvZCCJUGhv4U-293" value="4" style="ellipse;whiteSpace=wrap;html=1;aspect=fixed;fontSize=16;fontStyle=1;labelBackgroundColor=none;fillColor=#fff2cc;strokeColor=#d6b656;strokeWidth=5;" parent="1" vertex="1">
          <mxGeometry x="2730" y="378" width="35" height="35" as="geometry" />
        </mxCell>
        <mxCell id="bXA-Rw4eIvZCCJUGhv4U-294" value="3" style="ellipse;whiteSpace=wrap;html=1;aspect=fixed;fontSize=16;fontStyle=1;labelBackgroundColor=none;fillColor=#fff2cc;strokeColor=#d6b656;strokeWidth=5;" parent="1" vertex="1">
          <mxGeometry x="2740" y="590" width="35" height="35" as="geometry" />
        </mxCell>
        <mxCell id="bXA-Rw4eIvZCCJUGhv4U-295" value="7" style="ellipse;whiteSpace=wrap;html=1;aspect=fixed;fontSize=16;fontStyle=1;labelBackgroundColor=none;fillColor=#fff2cc;strokeColor=#d6b656;strokeWidth=5;" parent="1" vertex="1">
          <mxGeometry x="2740" y="670" width="35" height="35" as="geometry" />
        </mxCell>
        <mxCell id="bXA-Rw4eIvZCCJUGhv4U-296" value="7" style="ellipse;whiteSpace=wrap;html=1;aspect=fixed;fontSize=16;fontStyle=1;labelBackgroundColor=none;fillColor=#fff2cc;strokeColor=#d6b656;strokeWidth=5;" parent="1" vertex="1">
          <mxGeometry x="2730" y="781.5" width="35" height="35" as="geometry" />
        </mxCell>
        <mxCell id="bXA-Rw4eIvZCCJUGhv4U-297" value="17" style="ellipse;whiteSpace=wrap;html=1;aspect=fixed;fontSize=16;fontStyle=1;labelBackgroundColor=none;fillColor=#fff2cc;strokeColor=#d6b656;strokeWidth=5;" parent="1" vertex="1">
          <mxGeometry x="2682.5" y="999" width="35" height="35" as="geometry" />
        </mxCell>
        <mxCell id="bXA-Rw4eIvZCCJUGhv4U-298" value="10" style="ellipse;whiteSpace=wrap;html=1;aspect=fixed;fontSize=16;fontStyle=1;labelBackgroundColor=none;fillColor=#fff2cc;strokeColor=#d6b656;strokeWidth=5;" parent="1" vertex="1">
          <mxGeometry x="2545" y="606" width="35" height="35" as="geometry" />
        </mxCell>
        <mxCell id="bXA-Rw4eIvZCCJUGhv4U-299" value="3" style="ellipse;whiteSpace=wrap;html=1;aspect=fixed;fontSize=16;fontStyle=1;labelBackgroundColor=none;fillColor=#fff2cc;strokeColor=#d6b656;strokeWidth=5;" parent="1" vertex="1">
          <mxGeometry x="2950" y="1052.5" width="35" height="35" as="geometry" />
        </mxCell>
        <mxCell id="bXA-Rw4eIvZCCJUGhv4U-300" value="5" style="ellipse;whiteSpace=wrap;html=1;aspect=fixed;fontSize=16;fontStyle=1;labelBackgroundColor=none;fillColor=#fff2cc;strokeColor=#d6b656;strokeWidth=5;" parent="1" vertex="1">
          <mxGeometry x="2950" y="1132.5" width="35" height="35" as="geometry" />
        </mxCell>
        <mxCell id="bXA-Rw4eIvZCCJUGhv4U-301" value="6" style="ellipse;whiteSpace=wrap;html=1;aspect=fixed;fontSize=16;fontStyle=1;labelBackgroundColor=none;fillColor=#fff2cc;strokeColor=#d6b656;strokeWidth=5;" parent="1" vertex="1">
          <mxGeometry x="2950" y="1205" width="35" height="35" as="geometry" />
        </mxCell>
        <mxCell id="bXA-Rw4eIvZCCJUGhv4U-302" value="3" style="ellipse;whiteSpace=wrap;html=1;aspect=fixed;fontSize=16;fontStyle=1;labelBackgroundColor=none;fillColor=#fff2cc;strokeColor=#d6b656;strokeWidth=5;" parent="1" vertex="1">
          <mxGeometry x="2950" y="1292.5" width="35" height="35" as="geometry" />
        </mxCell>
        <mxCell id="bXA-Rw4eIvZCCJUGhv4U-303" value="24" style="ellipse;whiteSpace=wrap;html=1;aspect=fixed;fontSize=16;fontStyle=1;labelBackgroundColor=none;fillColor=#fff2cc;strokeColor=#d6b656;strokeWidth=5;" parent="1" vertex="1">
          <mxGeometry x="2530" y="785" width="35" height="35" as="geometry" />
        </mxCell>
        <mxCell id="bXA-Rw4eIvZCCJUGhv4U-304" value="7" style="ellipse;whiteSpace=wrap;html=1;aspect=fixed;fontSize=16;fontStyle=1;labelBackgroundColor=none;fillColor=#fff2cc;strokeColor=#d6b656;strokeWidth=5;" parent="1" vertex="1">
          <mxGeometry x="2765" y="1370" width="35" height="35" as="geometry" />
        </mxCell>
        <mxCell id="bXA-Rw4eIvZCCJUGhv4U-305" value="7" style="ellipse;whiteSpace=wrap;html=1;aspect=fixed;fontSize=16;fontStyle=1;labelBackgroundColor=none;fillColor=#fff2cc;strokeColor=#d6b656;strokeWidth=5;" parent="1" vertex="1">
          <mxGeometry x="2765" y="1454" width="35" height="35" as="geometry" />
        </mxCell>
        <mxCell id="bXA-Rw4eIvZCCJUGhv4U-306" value="7" style="ellipse;whiteSpace=wrap;html=1;aspect=fixed;fontSize=16;fontStyle=1;labelBackgroundColor=none;fillColor=#fff2cc;strokeColor=#d6b656;strokeWidth=5;" parent="1" vertex="1">
          <mxGeometry x="2765" y="1532.5" width="35" height="35" as="geometry" />
        </mxCell>
        <mxCell id="bXA-Rw4eIvZCCJUGhv4U-307" value="5" style="ellipse;whiteSpace=wrap;html=1;aspect=fixed;fontSize=16;fontStyle=1;labelBackgroundColor=none;fillColor=#fff2cc;strokeColor=#d6b656;strokeWidth=5;" parent="1" vertex="1">
          <mxGeometry x="2765" y="1614" width="35" height="35" as="geometry" />
        </mxCell>
        <mxCell id="bXA-Rw4eIvZCCJUGhv4U-308" value="14" style="ellipse;whiteSpace=wrap;html=1;aspect=fixed;fontSize=16;fontStyle=1;labelBackgroundColor=none;fillColor=#fff2cc;strokeColor=#d6b656;strokeWidth=5;" parent="1" vertex="1">
          <mxGeometry x="2545" y="1332" width="35" height="35" as="geometry" />
        </mxCell>
        <mxCell id="bXA-Rw4eIvZCCJUGhv4U-309" value="12" style="ellipse;whiteSpace=wrap;html=1;aspect=fixed;fontSize=16;fontStyle=1;labelBackgroundColor=none;fillColor=#fff2cc;strokeColor=#d6b656;strokeWidth=5;" parent="1" vertex="1">
          <mxGeometry x="2555" y="1489" width="35" height="35" as="geometry" />
        </mxCell>
        <mxCell id="bXA-Rw4eIvZCCJUGhv4U-310" value="34" style="ellipse;whiteSpace=wrap;html=1;aspect=fixed;fontSize=16;fontStyle=1;labelBackgroundColor=none;fillColor=#fff2cc;strokeColor=#d6b656;strokeWidth=5;" parent="1" vertex="1">
          <mxGeometry x="2540" y="460" width="35" height="35" as="geometry" />
        </mxCell>
        <mxCell id="bXA-Rw4eIvZCCJUGhv4U-311" value="94" style="ellipse;whiteSpace=wrap;html=1;aspect=fixed;fontSize=16;fontStyle=1;labelBackgroundColor=none;fillColor=#fff2cc;strokeColor=#d6b656;strokeWidth=5;" parent="1" vertex="1">
          <mxGeometry x="2365" y="530" width="35" height="35" as="geometry" />
        </mxCell>
        <mxCell id="bXA-Rw4eIvZCCJUGhv4U-312" value="103" style="ellipse;whiteSpace=wrap;html=1;aspect=fixed;fontSize=16;fontStyle=1;labelBackgroundColor=none;fillColor=#fff2cc;strokeColor=#d6b656;strokeWidth=5;" parent="1" vertex="1">
          <mxGeometry x="2400" y="313.5" width="35" height="35" as="geometry" />
        </mxCell>
        <mxCell id="muzQWI8Lm1PI14VJZ1gH-235" value="15" style="ellipse;whiteSpace=wrap;html=1;aspect=fixed;fontSize=16;fontStyle=1;labelBackgroundColor=none;fillColor=#f8cecc;strokeColor=#b85450;strokeWidth=5;" parent="1" vertex="1">
          <mxGeometry x="2450" y="413.5" width="35" height="35" as="geometry" />
        </mxCell>
        <mxCell id="muzQWI8Lm1PI14VJZ1gH-236" value="10" style="ellipse;whiteSpace=wrap;html=1;aspect=fixed;fontSize=16;fontStyle=1;labelBackgroundColor=none;fillColor=#f8cecc;strokeColor=#b85450;strokeWidth=5;" parent="1" vertex="1">
          <mxGeometry x="3000" y="972.5" width="35" height="35" as="geometry" />
        </mxCell>
        <mxCell id="muzQWI8Lm1PI14VJZ1gH-237" value="15" style="ellipse;whiteSpace=wrap;html=1;aspect=fixed;fontSize=16;fontStyle=1;labelBackgroundColor=none;fillColor=#f8cecc;strokeColor=#b85450;strokeWidth=5;" parent="1" vertex="1">
          <mxGeometry x="2730" y="825" width="35" height="35" as="geometry" />
        </mxCell>
        <mxCell id="muzQWI8Lm1PI14VJZ1gH-238" value="10" style="ellipse;whiteSpace=wrap;html=1;aspect=fixed;fontSize=16;fontStyle=1;labelBackgroundColor=none;fillColor=#f8cecc;strokeColor=#b85450;strokeWidth=5;" parent="1" vertex="1">
          <mxGeometry x="2820" y="1370" width="35" height="35" as="geometry" />
        </mxCell>
        <mxCell id="muzQWI8Lm1PI14VJZ1gH-239" value="10" style="ellipse;whiteSpace=wrap;html=1;aspect=fixed;fontSize=16;fontStyle=1;labelBackgroundColor=none;fillColor=#f8cecc;strokeColor=#b85450;strokeWidth=5;" parent="1" vertex="1">
          <mxGeometry x="2820" y="1612.5" width="35" height="35" as="geometry" />
        </mxCell>
        <mxCell id="muzQWI8Lm1PI14VJZ1gH-240" value="10" style="ellipse;whiteSpace=wrap;html=1;aspect=fixed;fontSize=16;fontStyle=1;labelBackgroundColor=none;fillColor=#f8cecc;strokeColor=#b85450;strokeWidth=5;" parent="1" vertex="1">
          <mxGeometry x="3000" y="432.5" width="35" height="35" as="geometry" />
        </mxCell>
        <mxCell id="muzQWI8Lm1PI14VJZ1gH-241" value="10" style="ellipse;whiteSpace=wrap;html=1;aspect=fixed;fontSize=16;fontStyle=1;labelBackgroundColor=none;fillColor=#f8cecc;strokeColor=#b85450;strokeWidth=5;" parent="1" vertex="1">
          <mxGeometry x="2785" y="669" width="35" height="35" as="geometry" />
        </mxCell>
        <mxCell id="muzQWI8Lm1PI14VJZ1gH-242" value="5" style="ellipse;whiteSpace=wrap;html=1;aspect=fixed;fontSize=16;fontStyle=1;labelBackgroundColor=none;fillColor=#f8cecc;strokeColor=#b85450;strokeWidth=5;" parent="1" vertex="1">
          <mxGeometry x="3000" y="1292.5" width="35" height="35" as="geometry" />
        </mxCell>
      </root>
    </mxGraphModel>
  </diagram>
</mxfile>
